<?xml version="1.0" encoding="UTF-8" standalone="no"?>
<!-- Created with Inkscape (http://www.inkscape.org/) -->

<svg
   xmlns:dc="http://purl.org/dc/elements/1.1/"
   xmlns:cc="http://creativecommons.org/ns#"
   xmlns:rdf="http://www.w3.org/1999/02/22-rdf-syntax-ns#"
   xmlns:svg="http://www.w3.org/2000/svg"
   xmlns="http://www.w3.org/2000/svg"
   xmlns:sodipodi="http://sodipodi.sourceforge.net/DTD/sodipodi-0.dtd"
   xmlns:inkscape="http://www.inkscape.org/namespaces/inkscape"
   width="200"
   height="200"
   id="svg2"
   version="1.1"
   inkscape:version="0.48.4 r9939"
   sodipodi:docname="New document 1">
  <defs
     id="defs4" />
  <sodipodi:namedview
     id="base"
     pagecolor="#ffffff"
     bordercolor="#666666"
     borderopacity="1.0"
     inkscape:pageopacity="0.0"
     inkscape:pageshadow="2"
     inkscape:zoom="0.98994949"
     inkscape:cx="77.55925"
     inkscape:cy="97.371635"
     inkscape:document-units="px"
     inkscape:current-layer="layer1"
     showgrid="false"
     inkscape:snap-grids="false"
     inkscape:snap-page="true"
     inkscape:window-width="1366"
     inkscape:window-height="712"
     inkscape:window-x="-4"
     inkscape:window-y="-4"
     inkscape:window-maximized="1">
    <inkscape:grid
       type="xygrid"
       id="grid2985"
       empspacing="5"
       visible="true"
       enabled="true"
       snapvisiblegridlinesonly="true" />
  </sodipodi:namedview>
  <metadata
     id="metadata7">
    <rdf:RDF>
      <cc:Work
         rdf:about="">
        <dc:format>image/svg+xml</dc:format>
        <dc:type
           rdf:resource="http://purl.org/dc/dcmitype/StillImage" />
        <dc:title></dc:title>
      </cc:Work>
    </rdf:RDF>
  </metadata>
  <g
     inkscape:label="Layer 1"
     inkscape:groupmode="layer"
     id="layer1"
     transform="translate(0,-852.36218)">
    <rect
       style="fill:#000000;fill-rule:evenodd;stroke:#000000;stroke-width:0.99758327000000002px;stroke-linecap:butt;stroke-linejoin:miter;stroke-opacity:1"
       id="rect2987"
       width="199.00241"
       height="15.002417"
       x="0.49879164"
       y="852.86096" />
    <rect
       style="fill:#000000;fill-rule:evenodd;stroke:#000000;stroke-width:0.99758327px;stroke-linecap:butt;stroke-linejoin:miter;stroke-opacity:1"
       id="rect2987-5"
       width="199.00241"
       height="15.002417"
       x="852.86096"
       y="-15.501208"
       transform="matrix(0,1,-1,0,0,0)" />
    <rect
       style="fill:#000000;fill-rule:evenodd;stroke:#000000;stroke-width:0.99758327px;stroke-linecap:butt;stroke-linejoin:miter;stroke-opacity:1"
       id="rect2987-2"
       width="199.00241"
       height="15.002417"
       x="852.86096"
       y="-199.50121"
       transform="matrix(0,1,-1,0,0,0)" />
    <rect
       style="fill:#000000;fill-rule:evenodd;stroke:#000000;stroke-width:0.99758327px;stroke-linecap:butt;stroke-linejoin:miter;stroke-opacity:1"
       id="rect2987-7"
       width="199.00241"
       height="15.002417"
       x="0.49879164"
       y="1036.861" />
    <text
       xml:space="preserve"
       style="font-size:71.72141266px;font-style:normal;font-weight:normal;line-height:125%;letter-spacing:0px;word-spacing:0px;fill:#000000;fill-opacity:1;stroke:none;font-family:Sans"
       x="30.902773"
       y="814.94476"
       id="text3029"
       sodipodi:linespacing="125%"
       transform="scale(0.80898884,1.236111)"><tspan
         sodipodi:role="line"
         id="tspan3031"
         x="30.902773"
         y="814.94476"
         style="font-size:129.09854126px;font-weight:bold;fill:#000000;-inkscape-font-specification:Sans Bold">8B</tspan></text>
    <path
       style="fill:#000000"
       d="m 1.0066738,84.851579 c 0,-39.717262 2.673e-4,-39.776786 0.1785715,-39.776786 0.1783042,0 0.1785714,0.05952 0.1785714,39.776786 0,39.717261 -2.672e-4,39.776781 -0.1785714,39.776781 -0.1783042,0 -0.1785715,-0.0595 -0.1785715,-39.776781 z"
       id="path3041"
       inkscape:connector-curvature="0"
       transform="translate(0,852.36218)" />
    <path
       style="fill:#000000"
       d="m 14.578102,84.851579 c 0,-39.717262 2.68e-4,-39.776786 0.178572,-39.776786 0.178304,0 0.178571,0.05952 0.178571,39.776786 0,39.717261 -2.67e-4,39.776781 -0.178571,39.776781 -0.178304,0 -0.178572,-0.0595 -0.178572,-39.776781 z"
       id="path3045"
       inkscape:connector-curvature="0"
       transform="translate(0,852.36218)" />
    <path
       style="fill:#000000"
       d="m 14.651737,956.87894 c -0.04086,-27.76015 0.01473,-58.99554 0.104987,-58.99554 0.04197,0 0.08928,8.84933 0.105124,19.66518 0.04061,27.7272 -0.0151,58.99554 -0.105124,58.99554 -0.04183,0 -0.08907,-8.84933 -0.104987,-19.66518 z"
       id="path3047"
       inkscape:connector-curvature="0" />
  </g>
</svg>
